<?xml version="1.0" encoding="UTF-8" standalone="no"?>
<!-- Created with Inkscape (http://www.inkscape.org/) -->

<svg
   version="1.1"
   id="svg1"
   width="512"
   height="512"
   viewBox="0 0 512 512"
   sodipodi:docname="groupscout-logo-coloured.svg"
   inkscape:version="1.2.2 (b0a8486541, 2022-12-01)"
   inkscape:export-filename="icon.png"
   inkscape:export-xdpi="96"
   inkscape:export-ydpi="96"
   xml:space="preserve"
   xmlns:inkscape="http://www.inkscape.org/namespaces/inkscape"
   xmlns:sodipodi="http://sodipodi.sourceforge.net/DTD/sodipodi-0.dtd"
   xmlns:xlink="http://www.w3.org/1999/xlink"
   xmlns="http://www.w3.org/2000/svg"
   xmlns:svg="http://www.w3.org/2000/svg"><defs
     id="defs1"><linearGradient
       inkscape:collect="always"
       xlink:href="#linearGradient4987"
       id="linearGradient5130"
       x1="322.41333"
       y1="356.66788"
       x2="322.41333"
       y2="431.83759"
       gradientUnits="userSpaceOnUse"
       gradientTransform="matrix(1.1430042,0,0,1.1430042,-486.35517,349.22824)" /><linearGradient
       inkscape:collect="always"
       id="linearGradient4987"><stop
         style="stop-color:#5a54be;stop-opacity:1;"
         offset="0"
         id="stop4983" /><stop
         style="stop-color:#5a54be;stop-opacity:1;"
         offset="1"
         id="stop4985" /></linearGradient></defs><sodipodi:namedview
     id="namedview1"
     pagecolor="#ffffff"
     bordercolor="#000000"
     borderopacity="0.25"
     inkscape:showpageshadow="2"
     inkscape:pageopacity="0.0"
     inkscape:pagecheckerboard="0"
     inkscape:deskcolor="#d1d1d1"
     inkscape:zoom="0.46102441"
     inkscape:cx="-4.3381651"
     inkscape:cy="466.35274"
     inkscape:window-width="1920"
     inkscape:window-height="1006"
     inkscape:window-x="0"
     inkscape:window-y="0"
     inkscape:window-maximized="1"
     inkscape:current-layer="g1"
     showgrid="false" /><g
     inkscape:groupmode="layer"
     inkscape:label="Image"
     id="g1"><g
       id="g455"
       transform="matrix(0.70663699,0,0,0.70663699,339.0924,-197.54598)"><path
         id="path339"
         style="fill:#de1d3e;fill-opacity:1;stroke-width:1.64615"
         d="m -247.13722,354.93492 c -11.86044,0 -27.98326,7.37447 -35.18976,16.09502 -11.76132,14.23229 -11.67247,13.80664 -33.92944,164.98199 -2.46598,16.74964 -4.72117,30.74653 -5.01241,31.10337 -0.29123,0.35662 -5.76034,-1.69096 -12.15324,-4.5495 -27.20893,-12.16602 -62.85569,-17.57673 -84.85737,-12.87986 -23.92297,5.10709 -38.22298,15.49117 -47.6195,34.58208 -20.36959,41.38533 -9.65965,88.28062 26.78859,117.30458 17.33708,13.80566 45.18432,25.65668 67.727,28.82383 23.33351,3.27836 61.29947,-1.90036 139.2255,-18.99513 98.0791,-21.51557 138.3188,-22.09988 221.4078,-3.21505 81.35305,18.49027 110.39732,22.92752 141.45998,21.61216 11.37768,-0.48178 25.13087,-2.08747 30.56318,-3.56561 31.18457,-8.48486 53.78423,-27.54091 68.43438,-57.70536 9.36167,-19.27574 11.94633,-31.23282 11.06011,-51.1595 -0.63169,-14.2032 -1.47608,-18.18874 -5.81942,-27.47016 -12.291,-26.26521 -39.70089,-44.00892 -67.98104,-44.00892 -10.51593,0 -37.24295,5.93819 -58.71499,13.04379 -10.67633,3.53314 -19.85699,5.93071 -20.40331,5.33074 -0.8881,-0.97521 -5.22172,-28.40931 -21.36787,-135.25151 -2.66803,-17.65499 -5.8985,-35.2202 -7.17621,-39.03508 -5.74222,-17.14462 -19.52525,-29.78424 -36.66873,-33.62078 -13.39625,-2.99794 -29.01722,0.0358 -88.65444,17.21388 -45.47114,13.09768 -59.01823,12.55537 -117.57788,-4.7134 -29.3125,-8.64403 -53.39745,-13.92158 -63.54093,-13.92158 z"
         sodipodi:nodetypes="sssscssssssssssssssssssss" /><path
         id="path313"
         style="fill:url(#linearGradient5130);fill-opacity:1;stroke-width:1.64615"
         d="m -89.50183,726.96593 c -4.69032,0 -5.26601,0.64671 -7.60704,8.52978 -3.72099,12.52996 -3.34456,36.33976 0.76521,48.28496 10.58111,30.75458 34.41708,49.96894 69.13206,55.73139 12.03461,1.99763 37.39335,-4.17082 49.99552,-12.16293 11.22512,-7.11875 22.42678,-19.12692 28.51192,-30.55673 5.16085,-9.69382 11.48857,-34.94496 9.83513,-39.25374 -0.4768,-1.24245 -4.06907,-2.7735 -7.98,-3.40158 -3.91093,-0.62808 -28.81106,-5.86338 -55.33586,-11.63235 -46.83238,-10.18577 -76.9164,-15.5388 -87.31694,-15.5388 z m -52.32328,1.70719 c -7.74654,-0.25889 -35.64459,3.92839 -63.99427,9.76434 -78.32219,16.12322 -88.82417,18.36431 -89.56753,19.10772 -0.4354,0.43537 0.0115,6.36573 0.99348,13.17883 4.79042,33.25182 30.24625,59.65488 64.92023,67.33804 11.45605,2.5385 22.06414,1.98414 35.92925,-1.88093 35.29673,-9.83909 59.41902,-41.79921 59.30659,-78.57491 -0.0255,-8.36587 -3.56808,-26.54993 -5.559,-28.54081 -0.22661,-0.22666 -0.92211,-0.35525 -2.02875,-0.39228 z" /><path
         style="fill:#de1d3e;fill-opacity:1;stroke-width:1.64615"
         d="m -143.65274,927.86275 c -34.93165,-4.02006 -75.22961,-18.06233 -103.15946,-35.94692 -39.27995,-25.1526 -73.37197,-64.38542 -91.53675,-105.33983 -9.97349,-22.48621 -10.33125,-23.77175 -7.63994,-27.45245 3.27343,-4.47658 7.45974,-2.06701 10.62286,6.11439 31.42234,81.27388 99.83332,137.06597 184.3234,150.32379 24.51488,3.84678 60.40553,2.52924 84.32278,-3.09559 44.65322,-10.50136 80.58192,-30.4813 112.86056,-62.76179 24.78147,-24.78285 39.46183,-47.17533 52.94676,-80.76148 3.98697,-9.93019 5.19152,-11.52308 8.7135,-11.52308 3.61527,0 4.06857,0.6754 3.92767,5.85184 -0.18578,6.82545 -8.91561,27.7646 -18.71883,44.89834 -34.56671,60.41486 -96.12213,103.74204 -166.31428,117.06421 -16.66273,3.16258 -53.68739,4.54595 -70.34827,2.62857 z"
         id="path307" /><path
         id="rect4474"
         style="fill:#ffffff;fill-opacity:1;stroke:none;stroke-width:5.71502"
         d="m -188.86824,472.20388 c -12.96593,0.41619 -24.94245,8.66858 -31.47726,22.65471 -2.94691,6.30715 -3.46934,10.58668 -3.52054,28.80727 -0.0658,23.43659 2.83368,36.45597 12.27167,55.0874 15.20918,30.02466 40.46658,42.83122 63.38984,32.14253 3.62154,-1.68856 11.44671,-8.03166 17.39063,-14.0977 l 10.80943,-11.02827 10.11961,10.33618 c 16.46897,16.82446 31.93199,21.9426 50.23191,16.62272 37.30192,-10.84403 63.03272,-84.26562 42.66843,-121.75679 -7.81185,-14.38185 -24.38336,-21.67962 -39.79753,-17.52904 -16.82816,4.53136 -26.08209,14.44465 -46.3832,49.67603 -6.91789,12.00554 -13.29417,22.06538 -14.16477,22.35555 -0.8706,0.29021 -7.15425,-8.94594 -13.96608,-20.5205 -20.56072,-34.93629 -29.75307,-45.24664 -45.25359,-50.77661 -3.23702,-1.15485 -6.49629,-1.79411 -9.71554,-1.95114 -0.87188,-0.0426 -1.73861,-0.0501 -2.60301,-0.0223 z m 0.74787,23.06547 c 9.62221,-0.17756 17.03066,9.20535 41.40487,49.21839 l 15.97528,26.22883 -6.02979,8.21534 c -11.42297,15.5612 -24.2751,21.17941 -36.12519,15.7922 -5.72957,-2.60479 -15.87833,-13.35589 -19.84184,-21.02053 -4.96134,-9.59415 -8.5984,-22.1832 -10.6978,-37.04497 -3.43483,-24.31516 0.91824,-38.9249 12.23371,-41.04769 1.06402,-0.19956 2.08536,-0.32317 3.08076,-0.34157 z m 137.97757,0.038 c 5.78741,-0.0637 11.10843,3.44791 14.26299,9.58606 2.406,4.68177 2.7253,27.28197 0.54695,38.76838 -3.51453,18.5319 -12.80797,35.98935 -23.29764,43.76006 -5.56839,4.1251 -15.8381,5.19576 -22.21044,2.31287 -6.76599,-3.06096 -15.61089,-10.98015 -21.08531,-18.87969 l -4.46486,-6.44722 16.95307,-26.51239 c 19.92591,-31.15545 28.25313,-40.73866 36.79045,-42.34027 0.84084,-0.15772 1.67803,-0.23751 2.50479,-0.2478 z" /></g></g></svg>
