<?xml version="1.0" encoding="UTF-8" standalone="no"?>
<!-- Created with Inkscape (http://www.inkscape.org/) -->

<svg
   version="1.1"
   id="svg1"
   width="512"
   height="512"
   viewBox="0 0 512 512"
   sodipodi:docname="groupzen-logo-coloured.svg"
   inkscape:version="1.2.2 (b0a8486541, 2022-12-01)"
   inkscape:export-filename="icon.png"
   inkscape:export-xdpi="96"
   inkscape:export-ydpi="96"
   xml:space="preserve"
   xmlns:inkscape="http://www.inkscape.org/namespaces/inkscape"
   xmlns:sodipodi="http://sodipodi.sourceforge.net/DTD/sodipodi-0.dtd"
   xmlns="http://www.w3.org/2000/svg"
   xmlns:svg="http://www.w3.org/2000/svg"><defs
     id="defs1" /><sodipodi:namedview
     id="namedview1"
     pagecolor="#ffffff"
     bordercolor="#000000"
     borderopacity="0.25"
     inkscape:showpageshadow="2"
     inkscape:pageopacity="0.0"
     inkscape:pagecheckerboard="0"
     inkscape:deskcolor="#d1d1d1"
     inkscape:zoom="0.58273508"
     inkscape:cx="405.8448"
     inkscape:cy="314.03636"
     inkscape:window-width="1920"
     inkscape:window-height="1006"
     inkscape:window-x="0"
     inkscape:window-y="0"
     inkscape:window-maximized="1"
     inkscape:current-layer="g1818"
     showgrid="false" /><g
     inkscape:groupmode="layer"
     inkscape:label="Image"
     id="g1"><g
       id="g1818"
       transform="matrix(2.8162392,0,0,2.8162392,-2100.5412,304.259)"><path
         d="m 900.92751,-83.625906 c 0,0 -86.60894,0 -100.9568,0 -17.47867,0 -30.52187,14.484 -30.52187,31.701336 0,17.21706 0,50.7389296 0,63.26026 0,19.69587 9.65214,38.01827 38.6088,38.01827 24.52147,0 75.12987,0 81.65253,0 10.304,0 14.37867,-4.75734 14.37867,-14.27867 0,-8.1188 0,-45.33546 0,-52.21093 0,-6.87613 -6.81333,-13.398 -16.20533,-13.398 -9.39067,0 -74.60867,0 -74.60867,0 v 26.0870696 h 64.69533 V 24.77009 c 0,0 -64.69533,0 -71.2172,0 -6.52133,0 -13.826,-0.52133 -13.826,-12.52133 0,-11.99960043 0,-55.17347 0,-61.43467 0,-9.52133 6.29374,-11.86933 11.6416,-11.86933 10.9568,0 96.61894,0 96.61894,0 l -0.26,-22.570666"
         style="fill:#39b786;fill-opacity:1;fill-rule:nonzero;stroke:none;stroke-width:0.133333"
         id="path1592" /></g></g></svg>
