<?xml version="1.0" encoding="UTF-8" standalone="no"?>
<!-- Created with Inkscape (http://www.inkscape.org/) -->

<svg
   version="1.1"
   id="svg1"
   width="512"
   height="512"
   viewBox="0 0 512 512"
   sodipodi:docname="meetingsync-logo-coloured.svg"
   inkscape:version="1.2.2 (b0a8486541, 2022-12-01)"
   inkscape:export-filename="icon.png"
   inkscape:export-xdpi="96"
   inkscape:export-ydpi="96"
   xml:space="preserve"
   xmlns:inkscape="http://www.inkscape.org/namespaces/inkscape"
   xmlns:sodipodi="http://sodipodi.sourceforge.net/DTD/sodipodi-0.dtd"
   xmlns="http://www.w3.org/2000/svg"
   xmlns:svg="http://www.w3.org/2000/svg"><defs
     id="defs1" /><sodipodi:namedview
     id="namedview1"
     pagecolor="#ffffff"
     bordercolor="#000000"
     borderopacity="0.25"
     inkscape:showpageshadow="2"
     inkscape:pageopacity="0.0"
     inkscape:pagecheckerboard="0"
     inkscape:deskcolor="#d1d1d1"
     inkscape:zoom="0.28434636"
     inkscape:cx="-492.35729"
     inkscape:cy="242.66181"
     inkscape:window-width="1920"
     inkscape:window-height="1006"
     inkscape:window-x="0"
     inkscape:window-y="0"
     inkscape:window-maximized="1"
     inkscape:current-layer="g1"
     showgrid="false" /><g
     inkscape:groupmode="layer"
     inkscape:label="Image"
     id="g1"><path
       id="path535"
       style="fill:#5050eb;fill-opacity:1;stroke-width:1.89654"
       d="m 255.87374,27.164678 c -29.6188,0 -46.47901,2.606386 -73.20013,11.315889 -59.498,19.392807 -107.18509,60.436287 -135.382254,116.517623 -6.27357,12.47757 -17.098483,41.04366 -17.110784,45.15784 -0.0024,0.7616 7.173752,1.10834 15.947977,0.77364 15.519806,-0.5921 15.989407,-0.74623 17.206879,-5.68918 2.390044,-9.70366 17.768145,-40.03198 26.51425,-52.28854 26.721762,-37.44719 68.556202,-66.119734 114.427422,-78.423213 16.29851,-4.371573 22.09793,-4.950657 50.64523,-5.0453 35.6573,-0.118305 51.00979,2.584316 78.50487,13.809709 56.46235,23.051855 100.96879,72.866564 117.11346,131.076914 6.44785,23.24809 6.59468,22.77113 -6.90967,22.77113 -6.25854,0 -11.37835,0.45978 -11.37835,1.02349 0,1.00171 28.00278,50.54344 33.57289,59.39521 1.54703,2.45849 3.47526,3.73843 4.2861,2.84459 0.81086,-0.89383 9.64324,-15.49339 19.62861,-32.44369 l 18.15829,-30.8196 h -10.3837 c -6.68642,0 -10.62227,-0.84702 -11.05162,-2.37368 -0.36672,-1.30388 -1.72277,-8.3436 -3.01278,-15.64526 -1.28996,-7.30165 -5.33788,-21.38106 -8.99984,-31.29047 C 449.92678,111.46902 396.96357,60.611944 329.45344,38.6055 302.34733,29.769667 285.59638,27.164678 255.87374,27.164678 Z m 222.21908,4.55999 a 29.940951,29.940951 0 0 0 -29.94026,29.94026 29.940951,29.940951 0 0 0 29.94026,29.94026 29.940951,29.940951 0 0 0 29.94026,-29.94026 29.940951,29.940951 0 0 0 -29.94026,-29.94026 z M 255.77761,122.83321 c -36.35831,0 -64.48295,11.52193 -90.17634,36.95082 -17.17791,17.00109 -26.49867,32.12874 -33.32303,54.08082 -6.30919,20.29513 -6.29271,55.68258 0.0337,74.91552 16.13354,49.04802 56.19887,83.26456 105.48524,90.08985 63.27214,8.76207 124.42806,-31.76566 141.42701,-93.72726 5.88791,-21.46165 4.74963,-56.62542 -2.47943,-76.57809 C 357.713,156.0358 310.863,122.83321 255.77764,122.83321 Z m 3.36834,31.08385 c 2.99287,0.13334 5.99736,0.41634 9.00467,0.85048 41.94244,6.05523 74.85258,37.21159 83.44928,79.00464 6.60833,32.12625 -4.5819,65.90929 -29.46455,88.94624 -12.81237,11.86195 -24.1667,18.32149 -39.79062,22.63178 -19.71176,5.43804 -44.09926,4.76391 -60.61089,-1.67696 -47.13171,-18.38514 -73.64374,-68.11763 -61.47579,-115.31155 11.66403,-45.2393 53.99516,-76.44454 98.8879,-74.44463 z m -3.67586,53.81654 a 43.655666,43.655666 0 0 0 -43.65866,43.65867 43.655666,43.655666 0 0 0 43.65866,43.65389 43.655666,43.655666 0 0 0 43.65387,-43.65389 43.655666,43.655666 0 0 0 -43.65387,-43.65867 z M 41.55413,218.91015 c -0.776384,-0.77181 -35.4944916,57.74192 -37.5706664,63.32093 -0.3296645,0.88584 4.3068489,1.8666 10.3068224,2.1815 l 10.912274,0.57179 2.407316,14.31904 c 2.63198,15.63143 11.638225,42.80002 19.143314,57.75188 16.115221,32.10507 47.888907,68.56477 76.36185,87.62489 27.90649,18.68094 59.65463,31.81656 90.26763,37.34484 20.4913,3.70061 62.57943,3.75576 83.48293,0.11051 70.54684,-12.30233 133.69507,-58.4334 166.07689,-121.32267 7.76252,-15.07574 18.61956,-43.27793 18.61956,-48.36763 0,-1.06499 -6.67507,-1.83424 -15.65003,-1.80669 l -15.64525,0.0481 -6.28981,16.18339 c -24.07204,61.94508 -77.86313,107.41524 -144.87222,122.4615 -24.48666,5.49818 -61.98018,5.49818 -86.46684,0 C 142.36581,433.55256 86.248041,384.13088 64.411758,318.7927 61.213936,309.22418 58.072255,297.5326 57.425202,292.8118 l -1.177223,-8.58182 11.402367,-0.5718 11.402392,-0.57179 -18.268793,-31.61241 C 50.734877,234.08595 42.079897,219.43282 41.55413,218.91015 Z" /><path
       id="path16628"
       style="fill:#4c32eb;fill-opacity:1;stroke-width:1.43205"
       d="m -593.50146,24.857832 c -22.36464,0 -35.09549,1.968043 -55.27216,8.544447 -44.92592,14.643181 -80.93364,45.634403 -102.22487,87.980471 -4.73705,9.42162 -12.91076,30.99138 -12.92004,34.09792 -10e-4,0.57506 5.41679,0.83689 12.04206,0.58417 11.71872,-0.44709 12.07333,-0.56347 12.99261,-4.2958 1.80468,-7.32707 13.41644,-30.22747 20.02045,-39.48222 20.17718,-28.275728 51.76564,-49.925869 86.40222,-59.216024 12.30672,-3.300897 16.68577,-3.738151 38.24133,-3.809613 26.92425,-0.08926 38.51665,1.951377 59.27773,10.42746 42.63376,17.406102 76.2398,55.020307 88.43037,98.973947 4.86867,17.55425 4.97955,17.19412 -5.21736,17.19412 -4.72574,0 -8.59162,0.34717 -8.59162,0.77281 0,0.75637 21.14444,38.16451 25.35032,44.84832 1.16816,1.85635 2.62413,2.82284 3.23638,2.14788 0.61227,-0.6749 7.28144,-11.69879 14.82124,-24.49764 l 13.711,-23.27137 h -7.84056 c -5.04879,0 -8.02071,-0.63956 -8.3449,-1.79233 -0.2769,-0.98453 -1.30083,-6.3001 -2.27487,-11.81347 -0.97405,-5.51336 -4.03054,-16.14447 -6.79565,-23.6269 -18.51751,-50.109393 -58.50914,-88.510698 -109.48488,-105.127405 -20.46738,-6.671801 -33.11572,-8.638773 -55.5588,-8.638773 z m 167.79386,3.443179 a 22.607906,22.607906 0 0 0 -22.60736,22.607379 22.607906,22.607906 0 0 0 22.60736,22.607364 22.607906,22.607906 0 0 0 22.6074,-22.607364 22.607906,22.607906 0 0 0 -22.6074,-22.607379 z m -167.86642,68.794511 c -27.45356,0 -48.68998,8.700008 -68.09063,27.900938 -12.97076,12.83724 -20.00871,24.25987 -25.16166,40.83552 -4.76395,15.32448 -4.75152,42.04495 0.0254,56.56742 12.18218,37.03535 42.43482,62.87167 79.65015,68.02533 47.7757,6.61608 93.95349,-23.98573 106.7891,-70.77185 4.44586,-16.20536 3.58638,-42.75692 -1.87217,-57.82285 -14.37054,-39.66379 -49.74619,-64.734508 -91.3402,-64.734508 z m 2.54336,23.470888 c 2.25986,0.10068 4.52852,0.31435 6.79926,0.64219 31.67004,4.57217 56.51994,28.09783 63.01114,59.65505 4.98985,24.25798 -3.4597,49.76698 -22.24819,67.1618 -9.67439,8.95676 -18.24785,13.83425 -30.0452,17.08888 -14.88403,4.10617 -33.29859,3.59715 -45.76626,-1.26627 -35.58836,-13.88228 -55.60713,-51.43445 -46.41932,-87.06978 8.8073,-34.15943 40.77084,-57.72196 74.66857,-56.21187 z m -2.77555,40.63595 a 32.963653,32.963653 0 0 0 -32.96595,32.96593 32.963653,32.963653 0 0 0 32.96595,32.96231 32.963653,32.963653 0 0 0 32.96229,-32.96231 32.963653,32.963653 0 0 0 -32.96229,-32.96593 z m -161.52432,8.43922 c -0.58625,-0.58278 -26.80131,43.59994 -28.36898,47.81258 -0.24892,0.66886 3.25203,1.40944 7.7825,1.6472 l 8.23968,0.43174 1.81772,10.81205 c 1.98735,11.80303 8.78782,32.31759 14.45478,43.60748 12.16834,24.24199 36.16011,51.7721 57.65953,66.16408 21.07172,14.10564 45.04422,24.02414 68.15958,28.19845 15.47264,2.79425 47.25267,2.83593 63.03655,0.0834 53.26873,-9.28927 100.95086,-44.12205 125.40182,-91.60868 5.86136,-11.38344 14.05932,-32.67843 14.05932,-36.52157 0,-0.80418 -5.04023,-1.38501 -11.81707,-1.36422 l -11.81345,0.0363 -4.74934,12.2198 c -18.1764,46.77368 -58.79314,81.10743 -109.39056,92.46861 -18.48945,4.15158 -46.8002,4.15158 -65.28964,0 -53.06126,-11.91445 -95.43482,-49.2319 -111.92306,-98.56766 -2.41461,-7.22503 -4.78686,-16.05314 -5.27541,-19.61773 l -0.8889,-6.47998 8.60972,-0.43177 8.60974,-0.43174 -13.79445,-23.87 c -7.58788,-13.1294 -14.12311,-24.19375 -14.52008,-24.5884 z" /><g
       id="g675"
       transform="matrix(1.8742422,0,0,1.8742422,-1074.3536,-107.8245)"
       style="fill:#4c32eb;fill-opacity:1;stroke:none"><text
         xml:space="preserve"
         style="font-style:normal;font-variant:normal;font-weight:normal;font-stretch:normal;font-size:79.5488px;font-family:'TT Commons';-inkscape-font-specification:'TT Commons, Normal';font-variant-ligatures:normal;font-variant-caps:normal;font-variant-numeric:normal;font-variant-east-asian:normal;fill:#4c32eb;fill-opacity:1;stroke:none;stroke-width:29.9099;stroke-linecap:round;stroke-linejoin:round;paint-order:fill markers stroke"
         x="22.642677"
         y="336.05685"
         id="text235"><tspan
           sodipodi:role="line"
           id="tspan233"
           x="22.642677"
           y="336.05685"
           style="font-style:normal;font-variant:normal;font-weight:normal;font-stretch:normal;font-size:79.5488px;font-family:'TT Commons';-inkscape-font-specification:'TT Commons, Normal';font-variant-ligatures:normal;font-variant-caps:normal;font-variant-numeric:normal;font-variant-east-asian:normal;fill:#4c32eb;fill-opacity:1;stroke:none;stroke-width:29.9099">Meeting</tspan></text><text
         xml:space="preserve"
         style="font-style:normal;font-variant:normal;font-weight:normal;font-stretch:normal;font-size:73.7179px;font-family:'Cavren Sans';-inkscape-font-specification:'Cavren Sans, Normal';font-variant-ligatures:normal;font-variant-caps:normal;font-variant-numeric:normal;font-variant-east-asian:normal;fill:#4c32eb;fill-opacity:1;stroke:none;stroke-width:27.7174;stroke-linecap:round;stroke-linejoin:round;paint-order:fill markers stroke"
         x="319.4212"
         y="336.17636"
         id="text567"><tspan
           sodipodi:role="line"
           id="tspan565"
           x="319.4212"
           y="336.17636"
           style="font-style:normal;font-variant:normal;font-weight:normal;font-stretch:normal;font-size:73.7179px;font-family:'Cavren Sans';-inkscape-font-specification:'Cavren Sans, Normal';font-variant-ligatures:normal;font-variant-caps:normal;font-variant-numeric:normal;font-variant-east-asian:normal;fill:#4c32eb;fill-opacity:1;stroke:none;stroke-width:27.7174">Sync</tspan></text></g></g></svg>
